<svg xmlns="http://www.w3.org/2000/svg" viewBox="0 0 500 500"><g id="freepik--Hands--inject-281"><path d="M140.14,465.79s22.29-34.17,26.37-47.9.87-33.26-.37-45.63S171,328.61,171,328.61s-5.56-21.64-2.47-23.5,14-2.59,18.42-4.08,7.05-1.11,11,.87a30.55,30.55,0,0,1,5.69,3.46l-2.72,4.2-10.39,2.23,6.68,34.87s20.28,5.2,21.27,6.93.12,9-2,15.08-1.11,10.27-4.82,11.5-5.94,2-6.31.87-5.07,18.18-8.41,24.24a84.43,84.43,0,0,0-5.68,13.85s-5.73,56.67-4.87,58" style="fill:#fff;stroke:#263238;stroke-linecap:round;stroke-linejoin:round"></path><path d="M190.16,317.28s-9-2.85-10.3-4.1a12.76,12.76,0,0,0,2.18,6.53c2.18,3.18,1.84,9.71,1.84,9.71l12.9,24.45,7.84,28.75c.39-1.18.65-1.81.72-1.58.37,1.11,2.6.37,6.31-.87s2.72-5.44,4.82-11.5a47.68,47.68,0,0,0,2.17-9.33v-5.26a3,3,0,0,0-.19-.49c-1-1.73-21.27-6.93-21.27-6.93L192,319.45Z" style="fill:#263238;stroke:#263238;stroke-linecap:round;stroke-linejoin:round"></path><line x1="204.16" y1="366.75" x2="207.96" y2="358.86" style="fill:none;stroke:#263238;stroke-linecap:round;stroke-linejoin:round"></line><path d="M176.51,311.07a30.71,30.71,0,0,0,9.14,5.28" style="fill:none;stroke:#263238;stroke-linecap:round;stroke-linejoin:round"></path><path d="M387.49,435.86s-40.41-36-41.17-37.45-18.82-47.11-21.95-54.82-8.48-9.33-11-12.71-8-18-9.41-24.83.09-12.46-13-12.63-6.78-1.69-11.36-1-6.44,5.26-6.44,5.26l12.87-1.6,2.47,1c2.47,1,2.63,4.5,2.63,4.5s2.29,23.81,2.71,28.47S297,354.79,297,354.79s-16.29-5.69-17.65-6.37-5.93,5.08-7.37,10.08,2.37,8,5.93,12.71,9.83,4.92,9.83,4.92L315,405.19,347.54,467" style="fill:#fff;stroke:#263238;stroke-linecap:round;stroke-linejoin:round"></path><path d="M296.6,334.27a56.58,56.58,0,0,1-3.36-10.87c.28,3,.51,5.44.62,6.63.39,4.24,2.69,21.28,3.1,24.3.86-.53,1.57-.88,1.57-.88a16.86,16.86,0,0,0,1.42-6.61C300,342.9,299.2,339.55,296.6,334.27Z" style="fill:#263238;stroke:#263238;stroke-linecap:round;stroke-linejoin:round"></path><path d="M295.93,372.46c.34-1.51-1.93-13.31-2.18-14.91-.14-.89,1.39-2.07,2.75-2.94-2.77-1-15.92-5.59-17.13-6.19s-5.93,5.08-7.37,10.08,2.37,8,5.93,12.71,9.83,4.92,9.83,4.92l1.22,1.3C292.6,375.21,295.79,373.1,295.93,372.46Z" style="fill:#263238;stroke:#263238;stroke-linecap:round;stroke-linejoin:round"></path><path d="M290.72,299.78,296,346.57a4.22,4.22,0,0,1-3.72,4.66l-96.8,10.89a4.23,4.23,0,0,1-4.67-3.72l-5.26-46.79a4.22,4.22,0,0,1,3.73-4.67l96.79-10.88A4.22,4.22,0,0,1,290.72,299.78Z" style="fill:#EAF810;stroke:#263238;stroke-linecap:round;stroke-linejoin:round"></path><rect x="201.87" y="316.57" width="10.99" height="11.45" transform="translate(-34.72 25.19) rotate(-6.42)" style="fill:#263238;stroke:#263238;stroke-linecap:round;stroke-linejoin:round"></rect><rect x="204.38" y="338.86" width="10.99" height="11.45" transform="translate(-37.2 25.61) rotate(-6.42)" style="fill:#263238;stroke:#263238;stroke-linecap:round;stroke-linejoin:round"></rect><rect x="191.75" y="329.2" width="11.45" height="10.99" transform="translate(-36.17 24.17) rotate(-6.42)" style="fill:#263238;stroke:#263238;stroke-linecap:round;stroke-linejoin:round"></rect><rect x="214.04" y="326.69" width="11.45" height="10.99" transform="translate(-35.75 26.64) rotate(-6.42)" style="fill:#263238;stroke:#263238;stroke-linecap:round;stroke-linejoin:round"></rect><path d="M268.52,337.43a7.5,7.5,0,1,0-6.61,8.29A7.5,7.5,0,0,0,268.52,337.43Z" style="fill:#263238;stroke:#263238;stroke-linecap:round;stroke-linejoin:round"></path><path d="M287.81,307.48a7.5,7.5,0,1,0-6.62,8.3A7.51,7.51,0,0,0,287.81,307.48Z" style="fill:#263238;stroke:#263238;stroke-linecap:round;stroke-linejoin:round"></path><path d="M278.15,322.32a7.5,7.5,0,1,0-6.62,8.3A7.5,7.5,0,0,0,278.15,322.32Z" style="fill:#263238;stroke:#263238;stroke-linecap:round;stroke-linejoin:round"></path><rect x="235.52" y="328.94" width="10.99" height="4.82" transform="translate(-35.52 29.01) rotate(-6.42)" style="fill:#263238;stroke:#263238;stroke-linecap:round;stroke-linejoin:round"></rect><path d="M213.78,304.18c4.28,5.68,14.1,9,25,7.73s19.79-6.61,22.71-13.09Zm29.08,43.68c-10,1.12-18.16,5.67-21.75,11.37l45.51-5.11C261.84,349.35,252.82,346.74,242.86,347.86Z" style="fill:#fff;stroke:#263238;stroke-linecap:round;stroke-linejoin:round"></path><path d="M187.13,362.78s-2.72-16.69-4.2-21.12-3.63-8.06-2.84-10.22,13.51-6,13.51-6,11.18-9,12.66-7.44,2.55,6.53,2.5,8.63-2.44,5.16-5,6.58a95.11,95.11,0,0,0-8.23,6s3,14.7,6.81,23.84,5.28,26.62,4.15,32.87-19.36,23.67-19.36,23.67" style="fill:#fff;stroke:#263238;stroke-linecap:round;stroke-linejoin:round"></path><path d="M304.88,358s-17.37-16.71-20.34-21.37-4.66-2.33-7.28-3.43-13.1-2.57-17.51-4.78-8.39,4.25-5.1,8.13A33.43,33.43,0,0,0,266.12,345a96,96,0,0,1,12.07,6.65s5.16,14.66,9.57,24.49,12.71,24.57,19.32,26.6A66.53,66.53,0,0,0,319,405.28" style="fill:#fff;stroke:#263238;stroke-linecap:round;stroke-linejoin:round"></path><path d="M279.93,334.53s-3.34,2.51-4.52,5.69" style="fill:none;stroke:#263238;stroke-linecap:round;stroke-linejoin:round"></path></g></svg>