<svg xmlns="http://www.w3.org/2000/svg" viewBox="0 0 500 500"><g id="freepik--Television--inject-194"><rect x="144.14" y="129.29" width="223.85" height="157.24" style="fill:#263238"></rect><rect x="149.79" y="136.37" width="212.42" height="143.07" style="fill:#fafafa"></rect><path d="M362.21,279.44s0-.88,0-2.59,0-4.24,0-7.54c0-6.62,0-16.33-.06-28.77,0-24.86-.06-60.6-.11-104.17l.21.21-212.4,0h0l.26-.26c0,51,0,99.48,0,143.07l-.24-.23,153.09.11,43.7.07,11.61,0h4l-1,0h-3l-11.57,0-43.65.06-153.24.12h-.24v-.24c0-43.59,0-92.07,0-143.07v-.26h.28l212.4.06h.21v.2c-.05,43.62-.08,79.41-.11,104.3,0,12.42,0,22.12-.05,28.72,0,3.29,0,5.8,0,7.5S362.21,279.44,362.21,279.44Z" style="fill:#263238"></path><polygon points="201.72 264.49 154.57 264.49 154.36 189.97 201.51 189.97 201.72 264.49" style="fill:#ebebeb"></polygon><rect x="177.94" y="189.97" width="23.57" height="74.51" style="fill:#e0e0e0"></rect><rect x="159.75" y="175.3" width="16.65" height="14.67" style="fill:#ebebeb"></rect><rect x="172.43" y="175.3" width="3.97" height="14.67" style="fill:#e0e0e0"></rect><rect x="150.43" y="189.12" width="52.46" height="0.86" style="fill:#e0e0e0"></rect><rect x="163.67" y="196.37" width="3.99" height="8.41" style="fill:#fff"></rect><path d="M177.94,208.09c0,.09-5.28.16-11.79.16s-11.79-.07-11.79-.16,5.28-.16,11.79-.16S177.94,208,177.94,208.09Z" style="fill:#e0e0e0"></path><rect x="187.45" y="196.37" width="3.99" height="8.41" style="fill:#f5f5f5"></rect><path d="M201.72,208.09c0,.09-5.28.16-11.79.16s-11.79-.07-11.79-.16,5.28-.16,11.79-.16S201.72,208,201.72,208.09Z" style="fill:#ebebeb"></path><rect x="187.45" y="213.08" width="3.99" height="8.41" style="fill:#f5f5f5"></rect><path d="M201.72,224.8c0,.08-5.28.16-11.79.16s-11.79-.08-11.79-.16,5.28-.17,11.79-.17S201.72,224.71,201.72,224.8Z" style="fill:#ebebeb"></path><rect x="187.45" y="230.29" width="3.99" height="8.41" style="fill:#f5f5f5"></rect><path d="M201.72,242c0,.08-5.28.16-11.79.16s-11.79-.08-11.79-.16,5.28-.16,11.79-.16S201.72,241.92,201.72,242Z" style="fill:#ebebeb"></path><rect x="187.45" y="247.5" width="3.99" height="8.41" style="fill:#f5f5f5"></rect><path d="M201.72,259.22c0,.09-5.28.16-11.79.16s-11.79-.07-11.79-.16,5.28-.16,11.79-.16S201.72,259.13,201.72,259.22Z" style="fill:#ebebeb"></path><rect x="163.67" y="213.33" width="3.99" height="8.41" style="fill:#fff"></rect><path d="M177.94,225.05c0,.09-5.28.16-11.79.16s-11.79-.07-11.79-.16,5.28-.16,11.79-.16S177.94,225,177.94,225.05Z" style="fill:#e0e0e0"></path><rect x="163.67" y="230.29" width="3.99" height="8.41" style="fill:#fff"></rect><path d="M177.94,242c0,.09-5.28.16-11.79.16s-11.79-.07-11.79-.16,5.28-.16,11.79-.16S177.94,241.92,177.94,242Z" style="fill:#e0e0e0"></path><rect x="163.67" y="247.26" width="3.99" height="8.41" style="fill:#fff"></rect><path d="M177.94,259c0,.09-5.28.16-11.79.16s-11.79-.07-11.79-.16,5.28-.16,11.79-.16S177.94,258.89,177.94,259Z" style="fill:#e0e0e0"></path><rect x="275.67" y="175.77" width="31.67" height="82.88" style="fill:#ebebeb"></rect><rect x="291.5" y="175.77" width="15.83" height="82.88" style="fill:#e0e0e0"></rect><rect x="279.28" y="165.92" width="11.18" height="9.85" style="fill:#ebebeb"></rect><rect x="287.8" y="165.92" width="2.67" height="9.85" style="fill:#e0e0e0"></rect><rect x="273.03" y="175.19" width="35.23" height="0.57" style="fill:#e0e0e0"></rect><rect x="281.92" y="180.07" width="2.68" height="5.65" style="fill:#fff"></rect><path d="M291.5,187.94c0,.06-3.54.1-7.92.1s-7.91,0-7.91-.1,3.54-.11,7.91-.11S291.5,187.88,291.5,187.94Z" style="fill:#e0e0e0"></path><rect x="297.89" y="180.07" width="2.68" height="5.65" style="fill:#f5f5f5"></rect><path d="M307.47,187.94c0,.06-3.54.1-7.92.1s-7.91,0-7.91-.1,3.54-.11,7.91-.11S307.47,187.88,307.47,187.94Z" style="fill:#ebebeb"></path><rect x="297.89" y="191.29" width="2.68" height="5.65" style="fill:#f5f5f5"></rect><path d="M307.47,199.16c0,.06-3.54.11-7.92.11s-7.91-.05-7.91-.11,3.54-.11,7.91-.11S307.47,199.1,307.47,199.16Z" style="fill:#ebebeb"></path><rect x="297.89" y="202.85" width="2.68" height="5.65" style="fill:#f5f5f5"></rect><path d="M307.47,210.72c0,.06-3.54.1-7.92.1s-7.91,0-7.91-.1,3.54-.11,7.91-.11S307.47,210.66,307.47,210.72Z" style="fill:#ebebeb"></path><rect x="297.89" y="214.41" width="2.68" height="5.65" style="fill:#f5f5f5"></rect><path d="M307.47,222.28c0,.06-3.54.1-7.92.1s-7.91,0-7.91-.1,3.54-.11,7.91-.11S307.47,222.22,307.47,222.28Z" style="fill:#ebebeb"></path><rect x="297.89" y="225.64" width="2.68" height="5.65" style="fill:#f5f5f5"></rect><path d="M307.47,233.51c0,.05-3.54.1-7.92.1s-7.91-.05-7.91-.1,3.54-.11,7.91-.11S307.47,233.45,307.47,233.51Z" style="fill:#ebebeb"></path><rect x="297.89" y="236.91" width="2.68" height="5.65" style="fill:#f5f5f5"></rect><rect x="297.89" y="248.33" width="2.68" height="5.65" style="fill:#f5f5f5"></rect><path d="M307.47,244.78c0,.06-3.54.11-7.92.11s-7.91,0-7.91-.11,3.54-.11,7.91-.11S307.47,244.72,307.47,244.78Z" style="fill:#ebebeb"></path><rect x="281.92" y="191.46" width="2.68" height="5.65" style="fill:#fff"></rect><path d="M291.5,199.33c0,.06-3.54.11-7.92.11s-7.91-.05-7.91-.11,3.54-.11,7.91-.11S291.5,199.27,291.5,199.33Z" style="fill:#e0e0e0"></path><rect x="281.92" y="202.85" width="2.68" height="5.65" style="fill:#fff"></rect><path d="M291.5,210.72c0,.06-3.54.11-7.92.11s-7.91-.05-7.91-.11,3.54-.11,7.91-.11S291.5,210.66,291.5,210.72Z" style="fill:#e0e0e0"></path><rect x="281.92" y="214.24" width="2.68" height="5.65" style="fill:#fff"></rect><path d="M291.5,222.11c0,.06-3.54.11-7.92.11s-7.91-.05-7.91-.11,3.54-.1,7.91-.1S291.5,222.05,291.5,222.11Z" style="fill:#e0e0e0"></path><rect x="281.92" y="225.64" width="2.68" height="5.65" style="fill:#fff"></rect><path d="M291.5,233.51c0,.05-3.54.1-7.92.1s-7.91-.05-7.91-.1,3.54-.11,7.91-.11S291.5,233.45,291.5,233.51Z" style="fill:#e0e0e0"></path><rect x="281.92" y="237.03" width="2.68" height="5.65" style="fill:#fff"></rect><path d="M291.5,244.9c0,.06-3.54.11-7.92.11s-7.91,0-7.91-.11,3.54-.11,7.91-.11S291.5,244.84,291.5,244.9Z" style="fill:#e0e0e0"></path><rect x="281.92" y="248.42" width="2.68" height="5.65" style="fill:#fff"></rect><rect x="298.9" y="158.57" width="53.07" height="100.72" style="fill:#e0e0e0"></rect><rect x="327.08" y="158.57" width="24.88" height="100.72" style="fill:#ebebeb"></rect><rect x="310.02" y="168.05" width="4.77" height="11.59" style="fill:#f5f5f5"></rect><rect x="310.02" y="213.42" width="4.77" height="11.59" style="fill:#f5f5f5"></rect><path d="M327.08,184.19c0,.1-6.31.18-14.09.18s-14.09-.08-14.09-.18S305.2,184,313,184,327.08,184.09,327.08,184.19Z" style="fill:#f5f5f5"></path><rect x="310.02" y="190.9" width="4.77" height="11.59" style="fill:#f5f5f5"></rect><path d="M327.08,207.05c0,.1-6.31.18-14.09.18s-14.09-.08-14.09-.18,6.3-.18,14.09-.18S327.08,207,327.08,207.05Z" style="fill:#f5f5f5"></path><rect x="332.37" y="168.05" width="4.77" height="11.59" style="fill:#e0e0e0"></rect><rect x="342.72" y="168.05" width="4.77" height="11.59" style="fill:#e0e0e0"></rect><rect x="332.37" y="190.04" width="4.77" height="11.59" style="fill:#e0e0e0"></rect><rect x="342.72" y="190.04" width="4.77" height="11.59" style="fill:#e0e0e0"></rect><rect x="332.37" y="212.04" width="4.77" height="11.59" style="fill:#e0e0e0"></rect><rect x="342.72" y="212.04" width="4.77" height="11.59" style="fill:#e0e0e0"></rect><rect x="294.91" y="156.13" width="61.05" height="2.52" style="fill:#e0e0e0"></rect><path d="M352.34,158.89c0,.1-11.86.18-26.49.18s-26.5-.08-26.5-.18,11.86-.18,26.5-.18S352.34,158.79,352.34,158.89Z" style="fill:#ebebeb"></path><rect x="149.79" y="251.71" width="50.11" height="27.74" style="fill:#455a64"></rect><path d="M166.41,150.76h1.27v4.47h2.76v1h-4Z" style="fill:#FDFF5E"></path><path d="M170.92,150.76a.71.71,0,0,1,.77-.68.69.69,0,0,1,.76.66.77.77,0,0,1-1.53,0Zm.15,1.28h1.23v4.22h-1.23Z" style="fill:#FDFF5E"></path><path d="M177.63,152l-1.78,4.22h-1.26L172.81,152h1.27l1.17,2.87,1.21-2.87Z" style="fill:#FDFF5E"></path><path d="M182.14,154.5h-3.2a1.13,1.13,0,0,0,1.21.84,1.44,1.44,0,0,0,1.06-.4l.65.7a2.46,2.46,0,0,1-4.15-1.49A2.15,2.15,0,0,1,180,152a2.1,2.1,0,0,1,2.2,2.2C182.16,154.26,182.15,154.39,182.14,154.5Zm-3.22-.72H181a1.06,1.06,0,0,0-2.09,0Z" style="fill:#FDFF5E"></path><path d="M184.44,158.94h-21.7V148.17h21.7Zm-21-.73h20.26v-9.32H163.46Z" style="fill:#FDFF5E"></path><rect x="171.07" y="265.62" width="22.46" height="7.24" style="fill:#fff"></rect><path d="M167.3,257.56v5.75h-1.09l-2.87-3.49v3.49H162v-5.75h1.1l2.85,3.49v-3.49Z" style="fill:#fff"></path><path d="M173.11,262.24v1.07h-4.45v-5.75H173v1.07h-3v1.24h2.67v1H170v1.33Z" style="fill:#fff"></path><path d="M182.78,257.56l-1.88,5.75h-1.43l-1.27-3.89-1.3,3.89h-1.42l-1.89-5.75H175l1.3,4,1.35-4h1.23l1.32,4.07,1.33-4.07Z" style="fill:#fff"></path><path d="M183.07,262.74l.45-1a3.4,3.4,0,0,0,1.9.6c.78,0,1.1-.26,1.1-.62,0-1.07-3.34-.33-3.34-2.47,0-1,.79-1.79,2.42-1.79a3.81,3.81,0,0,1,2,.51l-.41,1a3.26,3.26,0,0,0-1.59-.45c-.79,0-1.1.29-1.1.66,0,1.05,3.35.32,3.35,2.43,0,1-.8,1.79-2.44,1.79A4.13,4.13,0,0,1,183.07,262.74Z" style="fill:#fff"></path><path d="M158.72,267.29h.89v3.12h1.93v.72h-2.82Z" style="fill:#fff"></path><path d="M161.88,267.29a.49.49,0,0,1,.53-.48.48.48,0,0,1,.53.46.53.53,0,0,1-1.06,0Zm.1.89h.86v2.95H162Z" style="fill:#fff"></path><path d="M166.57,268.18l-1.25,2.95h-.88l-1.24-2.95h.88l.82,2,.85-2Z" style="fill:#fff"></path><path d="M169.72,269.9h-2.24a.8.8,0,0,0,.85.59,1,1,0,0,0,.74-.29l.46.5a1.57,1.57,0,0,1-1.22.48,1.54,1.54,0,0,1-1.69-1.53,1.51,1.51,0,0,1,1.58-1.52,1.47,1.47,0,0,1,1.54,1.54C169.74,269.73,169.72,269.83,169.72,269.9Zm-2.25-.5h1.46a.74.74,0,0,0-1.46,0Z" style="fill:#fff"></path><path d="M172.21,270.86l.29-.62a2,2,0,0,0,1,.29c.4,0,.55-.11.55-.27,0-.48-1.79,0-1.79-1.17,0-.56.51-1,1.37-1a2.49,2.49,0,0,1,1.14.26l-.29.61a1.74,1.74,0,0,0-.85-.22c-.39,0-.55.12-.55.28,0,.5,1.79,0,1.79,1.18,0,.55-.52.94-1.4.94A2.54,2.54,0,0,1,172.21,270.86Z" style="fill:#FDFF5E"></path><path d="M177.32,271a1.2,1.2,0,0,1-.7.19,1,1,0,0,1-1.1-1.06V268.9h-.46v-.66h.46v-.72h.86v.72h.73v.66h-.73v1.21a.34.34,0,0,0,.36.39.58.58,0,0,0,.35-.11Z" style="fill:#FDFF5E"></path><path d="M179.64,268.13v.79h-.19a.73.73,0,0,0-.79.83v1.39h-.86v-2.95h.82v.39A1.19,1.19,0,0,1,179.64,268.13Z" style="fill:#FDFF5E"></path><path d="M183,269.9h-2.23a.78.78,0,0,0,.84.59,1,1,0,0,0,.74-.29l.46.5a1.73,1.73,0,0,1-2.91-1.05,1.51,1.51,0,0,1,1.58-1.52,1.47,1.47,0,0,1,1.54,1.54A2,2,0,0,1,183,269.9Zm-2.24-.5h1.45a.73.73,0,0,0-1.45,0Z" style="fill:#FDFF5E"></path><path d="M186.12,269.45v1.68h-.8v-.37a1,1,0,0,1-.9.42c-.69,0-1.1-.39-1.1-.9s.37-.88,1.27-.88h.68c0-.37-.22-.59-.68-.59a1.45,1.45,0,0,0-.86.28l-.3-.6a2.26,2.26,0,0,1,1.27-.36C185.6,268.13,186.12,268.55,186.12,269.45Zm-.85.75v-.3h-.59c-.4,0-.53.14-.53.34s.18.36.49.36A.63.63,0,0,0,185.27,270.2Z" style="fill:#FDFF5E"></path><path d="M191.89,269.44v1.69H191v-1.56c0-.48-.22-.7-.56-.7s-.66.25-.66.78v1.48H189v-1.56c0-.48-.21-.7-.56-.7s-.65.25-.65.78v1.48h-.86v-2.95h.82v.34a1.18,1.18,0,0,1,.93-.39,1.09,1.09,0,0,1,1,.49,1.32,1.32,0,0,1,1.07-.49A1.14,1.14,0,0,1,191.89,269.44Z" style="fill:#FDFF5E"></path><path d="M171.33,273H156.16v-7.53h15.17Zm-14.67-.5h14.16V266H156.66Z" style="fill:#f5f5f5"></path><rect x="199.9" y="268.13" width="162.38" height="11.31" style="fill:#455a64"></rect><path d="M349.63,272.51c0,.15-30.32.26-67.71.26s-67.72-.11-67.72-.26,30.32-.26,67.72-.26S349.63,272.37,349.63,272.51Z" style="fill:#fff"></path><path d="M349.43,275c0,.14-30.32.26-67.71.26S214,275.11,214,275s30.31-.26,67.72-.26S349.43,274.82,349.43,275Z" style="fill:#fff"></path><path d="M306.89,178.1s-4.3,12.14-5.48,14a47,47,0,0,1-3.45,4.37l4.9,4.66,3.25-3.62,3.76-2.7s6-7.23,6.26-8-1.08-2.26-3-.86-3.65,4-4.19,3.28.32-7.58.32-7.58,1.61-3.54,1.08-4.72H309s0-1.19-.65-.86-.64,1.29-.64,1.29A1,1,0,0,0,306.89,178.1Z" style="fill:#d69676"></path><path d="M230.94,167.07a2.79,2.79,0,0,0-2.5,2.84h0l1.67,34.17c.07,4.46,6.59,7,11.36,6.86h0c4.83-1.14,5.73-3.85,5.53-8.09-.1-2-.4-4.79-.39-4.75s6.09-1,7.33-9c.62-4,.41-10.44.06-15.73-.31-4.77-3.48-10.62-8.23-10.11Z" style="fill:#d69676"></path><path d="M251.36,178.55a1,1,0,0,1-1,1,1,1,0,0,1-1.06-.91,1,1,0,0,1,1-1A1,1,0,0,1,251.36,178.55Z" style="fill:#263238"></path><path d="M252.61,177c-.13.14-.9-.43-2-.43s-1.9.56-2,.42.07-.3.42-.55a2.68,2.68,0,0,1,1.61-.5,2.63,2.63,0,0,1,1.59.51C252.55,176.74,252.67,177,252.61,177Z" style="fill:#263238"></path><path d="M240.73,178.67a1,1,0,0,1-1,1,1,1,0,0,1-1.05-.92,1,1,0,0,1,1-1A1,1,0,0,1,240.73,178.67Z" style="fill:#263238"></path><path d="M241.72,177c-.12.14-.9-.43-2-.43s-1.9.56-2,.42.06-.3.42-.55a2.75,2.75,0,0,1,1.61-.5,2.63,2.63,0,0,1,1.59.51C241.67,176.74,241.78,177,241.72,177Z" style="fill:#263238"></path><path d="M245.82,185.12a7.77,7.77,0,0,1,1.78-.33c.28,0,.55-.08.59-.28a1.43,1.43,0,0,0-.18-.83q-.4-1-.84-2.13A36.49,36.49,0,0,1,245.3,176a36.59,36.59,0,0,1,2.32,5.41c.27.75.54,1.46.79,2.14a1.62,1.62,0,0,1,.15,1.1.69.69,0,0,1-.46.41,1.73,1.73,0,0,1-.47.07A7.56,7.56,0,0,1,245.82,185.12Z" style="fill:#263238"></path><path d="M246.61,198.1A20.2,20.2,0,0,1,236,195.28s2.9,5.59,10.85,4.83Z" style="fill:#aa6550"></path><path d="M245.64,187.78a2.94,2.94,0,0,0-2.1-1.39,1.26,1.26,0,0,0-1.24.69,2,2,0,0,0,.18,1.82,1.68,1.68,0,0,0,1.66.81,2.75,2.75,0,0,0,1.37-.9.93.93,0,0,0,.28-.39.63.63,0,0,0-.09-.57" style="fill:#aa6550"></path><path d="M242.59,185.88c.18,0,.19,1.18,1.21,2s2.29.71,2.3.87-.29.23-.82.25a3,3,0,0,1-1.92-.66,2.59,2.59,0,0,1-.93-1.7C242.38,186.17,242.51,185.88,242.59,185.88Z" style="fill:#263238"></path><path d="M242.35,174.52c-.14.29-1.22,0-2.51.07s-2.37.28-2.51,0c-.07-.13.14-.39.59-.64a4.37,4.37,0,0,1,3.82,0C242.19,174.13,242.41,174.39,242.35,174.52Z" style="fill:#263238"></path><path d="M252.51,175.23c-.24.25-1.18,0-2.31,0s-2.09.16-2.3-.1,0-.38.47-.61a4,4,0,0,1,3.72.1C252.48,174.86,252.61,175.11,252.51,175.23Z" style="fill:#263238"></path><path d="M244.58,158.62a2.4,2.4,0,0,0,.87-3c.33-.47-.06-1.17-.6-1.36a2.84,2.84,0,0,0-1.7.11c.15-.27-.25-.49-.55-.54l-2.1-.34a3.29,3.29,0,0,0,2.2-1.87,5.14,5.14,0,0,0,.3-2.93,1.05,1.05,0,0,0-.38-.75,7.86,7.86,0,0,0-1.46,2.46,2.08,2.08,0,0,0-1.51.76.57.57,0,0,0-.86-.24c-.44-1.24-1.29-2.55-2.6-2.7.41-.58-.33-1.27-1-1.59a4,4,0,0,0-1.46-.51,1.4,1.4,0,0,0-1.34.61.86.86,0,0,0,.49,1.24,1.44,1.44,0,0,0-.51,1.7,1.44,1.44,0,0,0-1.73-.35,5.5,5.5,0,0,0-2.89-.42,1.3,1.3,0,0,0-.71.25c-.15.12-.24.3-.4.41a1.41,1.41,0,0,1-.78.21,3.11,3.11,0,0,0-1.75.64,1.51,1.51,0,0,0-.47,1.69c-1.45.47-2.89-1.19-4.38-.9a2.91,2.91,0,0,0-1.87,1.79,5.06,5.06,0,0,0,2.34.34,1,1,0,0,0,1,.77.59.59,0,0,0,.34.91,5.22,5.22,0,0,0-2.8,0c-1.39.33-2.93,1.07-3.25,2.47a4.78,4.78,0,0,0,0,1.51c.09.76.48,1.75,1.22,1.61.46-.09.7-.58,1-1a4,4,0,0,1,2.43-1.76c.36.35-.3.79-.59,1.2s-.17.94-.24,1.43a7.28,7.28,0,0,1-1,2c-.7,1.45-.33,3.17,0,4.74.1.43.59,1,.85.6a1.19,1.19,0,0,0-.89,1.21,3.51,3.51,0,0,0,.51,1.54.83.83,0,0,0,.46.49c.33.07.6-.26.77-.54l1.43-2.35a3.55,3.55,0,0,0,0,1.62,3,3,0,0,0,1.85,2.38,4.08,4.08,0,0,0,2.13-.16" style="fill:#263238"></path><path d="M228.93,183.34c.31-.13,1.55.38,1.76.12,1-1.35,1.6-5.2,1.86-6.88s-.8-3.56-.64-5.25a6.58,6.58,0,0,1,1.28-3.81,4.88,4.88,0,0,1,2.06-1.32,7.94,7.94,0,0,1,7.21,1,6,6,0,0,0,2.7,1.51A5,5,0,0,0,248,167.6,3.29,3.29,0,0,1,251,167a2.86,2.86,0,0,1,.93.77,13.73,13.73,0,0,1,2,5.29,10.92,10.92,0,0,0-.47-5.77,14.06,14.06,0,0,0-10.92-8.09c-9.4-1.53-13.8,3.7-15.47,7.44a19.93,19.93,0,0,0-.79,9.05A23.43,23.43,0,0,0,228.93,183.34Z" style="fill:#263238"></path><path d="M226.41,168a26.65,26.65,0,0,0,1.46-2.52,17.76,17.76,0,0,1,1.86-2.48,11,11,0,0,1,2.88-2.35,11.21,11.21,0,0,1,3.53-1.15,12.55,12.55,0,0,1,3.07-.11c1.76.16,2.82.56,2.87.42s-.21-.23-.68-.45a8.89,8.89,0,0,0-2.1-.63,11.23,11.23,0,0,0-3.28-.1,11,11,0,0,0-3.86,1.19,10.83,10.83,0,0,0-3.09,2.6,14.79,14.79,0,0,0-1.78,2.73C226.46,166.79,226.3,167.94,226.41,168Z" style="fill:#FDFF5E"></path><path d="M235.59,159.8a3.35,3.35,0,0,0,.57.07,12.37,12.37,0,0,1,1.52.26,11.27,11.27,0,0,1,7.72,6.13,12.33,12.33,0,0,1,.6,1.44,2.45,2.45,0,0,0,.19.53s0,0,0-.14,0-.24-.1-.42a10.9,10.9,0,0,0-.54-1.46,11,11,0,0,0-7.82-6.21,8.59,8.59,0,0,0-1.55-.2h-.57Z" style="fill:#455a64"></path><path d="M233.09,160.94a11.18,11.18,0,0,0,1.1.6,25.6,25.6,0,0,1,2.56,1.58,24.22,24.22,0,0,1,2.36,1.88c.58.51.92.85.94.83a1.17,1.17,0,0,0-.21-.27c-.14-.16-.36-.39-.64-.66a19,19,0,0,0-2.34-1.94,19.5,19.5,0,0,0-2.61-1.54c-.35-.17-.64-.3-.84-.38A1.1,1.1,0,0,0,233.09,160.94Z" style="fill:#455a64"></path><path d="M228,165.16a1.44,1.44,0,0,0,0,.31,7.78,7.78,0,0,0,.15.85A14.64,14.64,0,0,0,229,169a14.38,14.38,0,0,0,1.39,2.47c.21.3.39.53.52.68s.21.24.22.23a11.47,11.47,0,0,0-.63-1,18.05,18.05,0,0,1-1.33-2.48,19,19,0,0,1-.91-2.64A9.61,9.61,0,0,0,228,165.16Z" style="fill:#455a64"></path><path d="M230.62,176.52s-.38-.46-.93-1.25a14.58,14.58,0,0,1-.87-1.45,17,17,0,0,1-.8-1.9,16.22,16.22,0,0,1-.49-2,12.55,12.55,0,0,1-.16-1.68c0-1,0-1.56,0-1.57a1.37,1.37,0,0,0-.07.42,8.15,8.15,0,0,0-.07,1.15,12.47,12.47,0,0,0,.13,1.71,13.14,13.14,0,0,0,.48,2,13.33,13.33,0,0,0,.83,1.93,12.36,12.36,0,0,0,.91,1.45,8.28,8.28,0,0,0,.74.88A1.7,1.7,0,0,0,230.62,176.52Z" style="fill:#455a64"></path><path d="M212.38,165.84l.21,0,.62.09a6.28,6.28,0,0,0,2.28-.09,3.41,3.41,0,0,0,1.41-.73,2.36,2.36,0,0,0,.82-1.63,2,2,0,0,0-.18-1,1.75,1.75,0,0,0-.73-.77,2.2,2.2,0,0,0-2.14,0,1,1,0,0,0,0,1.85,2.09,2.09,0,0,0,1,.16,5.28,5.28,0,0,0,1-.16,5.11,5.11,0,0,0,2.78-1.89,5,5,0,0,0,.91-2.09,5,5,0,0,0,.07-.62.67.67,0,0,0,0-.21,7.19,7.19,0,0,1-.13.82,5.35,5.35,0,0,1-.94,2,5.08,5.08,0,0,1-2.73,1.8,4.85,4.85,0,0,1-.94.15,1.91,1.91,0,0,1-1-.15.89.89,0,0,1-.54-.73.94.94,0,0,1,.51-.79,2.09,2.09,0,0,1,2,0,1.65,1.65,0,0,1,.82,1.59,2.18,2.18,0,0,1-.74,1.52,3.42,3.42,0,0,1-1.35.72,6.56,6.56,0,0,1-2.24.15l-.61-.05A.53.53,0,0,0,212.38,165.84Z" style="fill:#263238"></path><path d="M249.13,148.66a3.68,3.68,0,0,1,.2.72,2.47,2.47,0,0,1-.55,1.9,2.72,2.72,0,0,1-2.72.82,1.73,1.73,0,0,1-1.27-1.06,1,1,0,0,1,.13-.84.7.7,0,0,1,.76-.32,1,1,0,0,1,.65.58,1.21,1.21,0,0,1,0,.88,3.11,3.11,0,0,1-1.08,1.37,5.43,5.43,0,0,1-2.79,1.09,5.6,5.6,0,0,1-2-.19c-.47-.13-.71-.26-.72-.24a.65.65,0,0,0,.17.1,3.6,3.6,0,0,0,.53.21,5.31,5.31,0,0,0,2.07.25,5.53,5.53,0,0,0,2.89-1.09,3.22,3.22,0,0,0,1.15-1.45,1.34,1.34,0,0,0,0-1,1.21,1.21,0,0,0-.78-.7.9.9,0,0,0-1,.4,1.22,1.22,0,0,0-.15,1,1.48,1.48,0,0,0,.57.79,2.52,2.52,0,0,0,.83.39,2.87,2.87,0,0,0,2.88-.9,2.56,2.56,0,0,0,.52-2,2.24,2.24,0,0,0-.18-.54A.65.65,0,0,0,249.13,148.66Z" style="fill:#263238"></path><path d="M230.88,182.17a2.41,2.41,0,0,0-3.53-2c-.84.48-1.48,1.45-1.4,3.32.2,5,5.16,3.75,5.17,3.61S231,184.23,230.88,182.17Z" style="fill:#d69676"></path><path d="M229.52,185.22s-.09.07-.23.14a.86.86,0,0,1-.65,0,2.16,2.16,0,0,1-1.07-1.89,2.84,2.84,0,0,1,.19-1.25,1,1,0,0,1,.62-.69.45.45,0,0,1,.53.22c.07.13,0,.23.07.24s.1-.09.05-.29a.52.52,0,0,0-.21-.31.64.64,0,0,0-.48-.1,1.24,1.24,0,0,0-.88.81,3,3,0,0,0-.24,1.4,2.26,2.26,0,0,0,1.36,2.1.91.91,0,0,0,.78-.17C229.51,185.34,229.53,185.23,229.52,185.22Z" style="fill:#aa6550"></path><path d="M257.11,201.59s3.9,2.16,7.59,4.23c4,2.25,14,6.52,14,6.52L298,196.15l5.52,5.6s-16,26.7-20.91,27.27-18.15-5.9-18.15-5.9Z" style="fill:#FDFF5E"></path><path d="M264.63,219.43c-.5-2.15-7.52-17.84-7.52-17.84l-10.24-.76s1,15.3-16.85,0l-2.14,1.77s-11.47,8.69-12.35,10.33,11.57,29.59,12.07,33.37-4.4,20.58-3.27,22.35h40.34l.59-11.9S265.14,221.57,264.63,219.43Z" style="fill:#FDFF5E"></path><path d="M217.54,268.13s-8.74-.55-8.61-12.52,2.17-33.36,2.36-34.66a15,15,0,0,1,4.24-8c1.71-1,7.94-2.77,9.83,4.16a47.55,47.55,0,0,1,1.43,13.85L225,249.42l18.1-9,3.17,9.52S225.86,268.13,217.54,268.13Z" style="fill:#FDFF5E"></path><path d="M211.29,221a1.33,1.33,0,0,1,0,.35q0,.39-.09,1c-.08.94-.19,2.29-.33,4-.28,3.48-.69,8.52-1.09,14.74-.19,3.12-.39,6.53-.51,10.2,0,.91,0,1.84-.08,2.79,0,.47,0,.95,0,1.43s0,1,.05,1.44a14.74,14.74,0,0,0,1.32,5.74,9.33,9.33,0,0,0,4.24,4.34,7.18,7.18,0,0,0,3,.83,10.77,10.77,0,0,0,3.16-.71,36.63,36.63,0,0,0,6.09-3c2-1.19,3.93-2.49,5.87-3.87,4.74-3.38,9.15-6.94,13.21-10.48l-.07.27q-1.65-4.94-3.17-9.53l.34.14-17.83,8.76-.29.14,0-.33c.5-6.81.9-12.34,1.18-16.2.16-1.89.27-3.37.36-4.41,0-.48.07-.86.1-1.14s.05-.39.05-.39a2.29,2.29,0,0,1,0,.39c0,.29,0,.67-.06,1.15-.05,1-.14,2.52-.24,4.41-.25,3.87-.59,9.4-1,16.22l-.27-.19L243,240.24l.25-.12.09.26q1.53,4.59,3.18,9.52l.06.16-.13.11c-4.07,3.56-8.48,7.13-13.24,10.53-1.94,1.38-3.91,2.69-5.91,3.88a36.93,36.93,0,0,1-6.18,3.05,11.42,11.42,0,0,1-3.32.74,8,8,0,0,1-3.25-.89,9.84,9.84,0,0,1-4.44-4.58,15.28,15.28,0,0,1-1.35-5.93c0-.49,0-1-.05-1.46s0-1,0-1.44c0-.95.06-1.88.08-2.8.15-3.67.37-7.09.59-10.2.44-6.23.9-11.26,1.25-14.74.18-1.71.33-3.05.43-4l.13-1A1.79,1.79,0,0,1,211.29,221Z" style="fill:#263238"></path><path d="M226.17,222.13c-.09,0,0-.89-.41-2.23a8.44,8.44,0,0,0-7.82-6.35c-1.39-.09-2.25.14-2.27,0a4.83,4.83,0,0,1,2.28-.42,8.26,8.26,0,0,1,8.17,6.63A4.63,4.63,0,0,1,226.17,222.13Z" style="fill:#263238"></path><path d="M259,208.42a4.11,4.11,0,0,0-2.86-.65,4.43,4.43,0,0,0-2.84,1.07,3.58,3.58,0,0,0-.94,2.39,8.78,8.78,0,0,0,.39,2.58,70.64,70.64,0,0,0,2.79,7.24l3.92-.34a47.78,47.78,0,0,0,.78-8.35C260.24,210.93,260.09,209.31,259,208.42Z" style="fill:#263238"></path><rect x="258.49" y="228.47" width="3.07" height="21.69" rx="1.35" transform="translate(-31.41 39.44) rotate(-8.18)" style="fill:#263238"></rect><rect x="249.34" y="220.61" width="13.04" height="10.72" transform="matrix(0.99, -0.13, 0.13, 0.99, -27.64, 35.83)" style="fill:#263238"></rect><path d="M259.64,210.49a6.37,6.37,0,0,1-3.46,1.16,6.51,6.51,0,0,1-3.63-.42c0-.16,1.63.11,3.58-.1S259.58,210.35,259.64,210.49Z" style="fill:#455a64"></path><path d="M259.73,213a5.46,5.46,0,0,1-3.36,1.22,5.54,5.54,0,0,1-3.52-.61c.05-.16,1.58.27,3.48.09S259.66,212.9,259.73,213Z" style="fill:#455a64"></path><rect x="252.35" y="220.24" width="13.04" height="10.72" transform="translate(-27.57 36.23) rotate(-7.6)" style="fill:#455a64"></rect><path d="M260.57,223.65l.44,3.45-.95.12-1.51-1.4.2,1.57-1.13.14-.44-3.44.95-.13,1.51,1.4-.2-1.56Z" style="fill:#fff"></path><path d="M243.71,241.42l5.46-5,3.83-4.1s7.41-2,8.71-1.19c.92.57.47,2,.47,2s1.44-.43,1.86.53a1.82,1.82,0,0,1-.63,2.5l-3,1.07s3-.23,3.71.22a1.4,1.4,0,0,1,.06,2.14l-2.47,1s2.26-.36,2.6.26.5,1.76-.37,2.23-4,1.87-4,1.87S253,247.73,252,248s-5.54,1.91-5.54,1.91Z" style="fill:#d69676"></path><path d="M262.23,240.46c0,.14-.79.45-1.85.71s-1.93.34-2,.2.79-.46,1.84-.71S262.19,240.32,262.23,240.46Z" style="fill:#aa6550"></path><path d="M262.07,233.12a4.9,4.9,0,0,1-2.21.74,4.63,4.63,0,0,1-2.33.07,6.37,6.37,0,0,1,2.23-.59A6,6,0,0,1,262.07,233.12Z" style="fill:#aa6550"></path><path d="M260.9,237.18c0,.14-.49.38-1.19.53s-1.28.15-1.3,0,.51-.38,1.19-.52S260.87,237,260.9,237.18Z" style="fill:#aa6550"></path></g></svg>